<svg aria-hidden="true" style="position:absolute;width:0;height:0;overflow:hidden" xmlns="http://www.w3.org/2000/svg"><defs><symbol id="antenna" viewBox="0 0 32 32"><path fill="#212121" style="fill:var(--color1, #212121)" d="m30.773 22.098-8.443-8.505.937-4.616c.225.09.485.144.758.146h.033a2.16 2.16 0 1 0-2.029-1.42l-.005-.015-4.96.606L8.973.161a.53.53 0 0 0-.376-.16.536.536 0 0 0-.373.155L6.712 1.66a.535.535 0 0 0 0 .754l.814.825C6.383 5.301 5.71 7.761 5.71 10.378c0 4.106 1.656 7.824 4.336 10.525l-.001-.001a.49.49 0 0 0 .146.097 2.986 2.986 0 0 0-.052.546v6.188h-6.4a2.669 2.669 0 0 0-2.667 2.666v1.067c0 .295.239.534.534.534H26.14a.534.534 0 0 0 .533-.534v-1.067a2.67 2.67 0 0 0-2.666-2.666h-6.4v-2.742a14.784 14.784 0 0 0 10.166-1.502l-.077.039.818.823a.534.534 0 0 0 .376.16.536.536 0 0 0 .373-.155l1.512-1.504a.535.535 0 0 0 0-.754zM23.28 6.233a1.067 1.067 0 1 1 .752 1.822h-.004a1.066 1.066 0 0 1-.747-1.822h-.002zm-1.256 3.504-.598 2.946-1.175-1.183 1.774-1.763zm-.605-.902-1.92 1.909-1.486-1.493 3.406-.416zM24.004 28.8a1.6 1.6 0 0 1 1.6 1.6v.534H2.138V30.4a1.6 1.6 0 0 1 1.6-1.6h20.267zm-7.466-2.134v1.067h-5.334v-1.067h5.334zM11.204 25.6v-4.053c0-1.294 1.196-2.346 2.667-2.346s2.667 1.053 2.667 2.346V25.6h-5.334zm6.4-1.696v-2.357c0-1.882-1.675-3.413-3.733-3.413h-.058c-1.353 0-2.54.707-3.213 1.771l-.009.016a13.817 13.817 0 0 1-3.812-9.55c0-2.314.567-4.496 1.569-6.414l-.036.077 18.602 18.709c-1.823.947-3.979 1.502-6.266 1.502-1.079 0-2.128-.124-3.136-.357l.093.018zm11.289-.684L7.836 2.039l.754-.752 7.935 7.98c.004 0 .006.007.01.01l13.114 13.191-.757.752z"/><path fill="#2196f3" style="fill:var(--color2, #2196f3)" d="M13.876 20.267h-.007a1.6 1.6 0 0 0-.003 3.2h.007a1.6 1.6 0 0 0 .002-3.2zm.373 1.978a.534.534 0 1 1-.378-.912.533.533 0 0 1 .374.911h.005z"/></symbol><symbol id="astronaut" viewBox="0 0 32 32"><path fill="#2196f3" style="fill:var(--color2, #2196f3)" d="M31.974 4.524a.535.535 0 0 0-.427-.362h-.003l-1.911-.278-.855-1.731c-.179-.365-.777-.365-.956 0l-.855 1.731-1.911.278a.534.534 0 0 0-.296.91l1.383 1.348-.326 1.903a.532.532 0 0 0 .774.562l1.709-.899 1.709.899a.534.534 0 0 0 .773-.565v.003l-.326-1.903 1.383-1.348a.535.535 0 0 0 .134-.55l.001.004zm-2.463 1.327a.53.53 0 0 0-.153.472l.191 1.114-1-.526a.525.525 0 0 0-.501.001l.003-.001-1 .526.191-1.114a.53.53 0 0 0-.152-.472l-.811-.79 1.119-.162a.532.532 0 0 0 .402-.292l.5-1.013.5 1.013a.532.532 0 0 0 .402.292l1.119.162-.809.79zm-3.377 14.671h-1.067v1.067h1.067v-1.067zm0 2.134h-1.067v1.066h1.067v-1.066zm1.066-1.067h-1.067v1.067H27.2v-1.067zm-2.133 0H24v1.067h1.067v-1.067zm-2.667 4.8h-1.067v1.067H22.4v-1.067zm0 2.134h-1.067v1.067H22.4v-1.067zm1.067-1.067H22.4v1.067h1.067v-1.067zm-2.133 0h-1.067v1.067h1.067v-1.067zM16 24.256h-1.066v1.067H16v-1.067zm0 2.133h-1.066v1.067H16v-1.067zm1.067-1.067H16v1.067h1.067v-1.067zm-2.133 0h-1.067v1.067h1.067v-1.067zm-9.067-19.2H4.801v1.066h1.066V6.122zm0 2.134H4.801v1.066h1.066V8.256zm1.066-1.067H5.866v1.067h1.066V7.189zm-2.133 0H3.733v1.067H4.8V7.189z"/><path fill="#212121" style="fill:var(--color1, #212121)" d="M24.715 14.16a1.774 1.774 0 0 0-1.179-.703l-.009-.001a1.769 1.769 0 0 0-1.344.355l.004-.003-1.253.96-1.898 1.417-1.358-.541c2.421-1.086 4.113-3.508 4.113-6.32 0-3.823-3.122-6.934-6.961-6.934S7.869 5.5 7.869 9.324c0 1.386.415 2.674 1.12 3.759l-2.768-.024c-.009 0-.016.005-.023.005a.511.511 0 0 0-.159.033l.004-.001c-.013.005-.026.007-.038.013-.006.003-.013.003-.019.006l-3.233 1.596-.001.001-1.893.91a.5.5 0 0 0-.065.036l.001-.001a1.782 1.782 0 0 0-.594 2.306l-.005-.01c.22.424.592.742 1.043.885l.013.003a1.772 1.772 0 0 0 1.388-.133l-.009.005 1.388-.738 2.264-1.169 1.357-.008-5.442 5.415-.001.001-1.339 1.333a1.643 1.643 0 0 0-.491 1.173v.005a1.668 1.668 0 0 0 1.667 1.664h.002a1.67 1.67 0 0 0 1.18-.485l1.314-1.309 1.741-1.3.901.897L4.07 27.28a1.643 1.643 0 0 0-.491 1.173v.004a1.662 1.662 0 0 0 1.666 1.664h.003a1.67 1.67 0 0 0 1.18-.485l4.488-4.472c.007-.006.016-.009.022-.016l5.166-5.658 3.471.494a.474.474 0 0 0 .262-.032c.017-.006.032-.015.049-.023.019-.01.039-.015.058-.027l3.213-2.133c.012-.008.018-.021.029-.03.013-.01.029-.014.041-.026l1.271-1.191c.348-.326.564-.787.564-1.3 0-.4-.132-.769-.355-1.066l.003.005zM2.13 17.77a.706.706 0 0 1-.564.05l.005.001a.717.717 0 0 1-.215-1.258l.002-.001 1.314-.632.316.924.133.389-.992.527zm3.497-1.828-1.548.8-.255-.746-.184-.537 2.027-1.001-.04 1.484zm15.1-6.62c0 .918-.219 1.785-.599 2.56l-4.181-1.899a1.865 1.865 0 0 0-.782-1.384l-.006-.004 1.464-4.861c2.377.757 4.104 2.975 4.104 5.588zm-11.789 0c0-3.235 2.644-5.867 5.894-5.867.253 0 .5.022.745.053l-1.432 4.753c-.019 0-.037-.006-.057-.006h-.001a1.872 1.872 0 0 0-1.872 1.867 1.873 1.873 0 0 0 1.872 1.867h.001c.695 0 1.295-.383 1.618-.944l3.863 1.755a5.891 5.891 0 0 1-4.737 2.39c-3.25 0-5.894-2.632-5.894-5.867zm5.957.8c0 .441-.362.8-.806.8h-.001a.804.804 0 0 1-.804-.8c0-.441.361-.8.806-.8s.806.359.806.8zM2.464 25.146a.606.606 0 0 1-.855.001.591.591 0 0 1 0-.844l.962-.959.852.848-.959.954zm3.214 3.734a.606.606 0 0 1-.855.001.591.591 0 0 1 0-.844l.963-.959.852.848-.96.955zm3.482-3.469-.001.001-1.765 1.76-.852-.848 1.765-1.757a.527.527 0 0 0 .09-.136c.007-.014.02-.026.026-.04.016-.041.019-.085.026-.128.003-.025.014-.048.014-.073 0-.035-.013-.07-.02-.105-.006-.032-.006-.064-.019-.096a.536.536 0 0 0-.092-.138c-.01-.012-.014-.026-.025-.038h-.001l-.001-.002-1.607-1.6c-.017-.017-.039-.024-.058-.038a.491.491 0 0 0-.084-.056l-.003-.001a.527.527 0 0 0-.09-.031l-.003-.001a.502.502 0 0 0-.101-.02h-.025a.603.603 0 0 0-.075.005h.003c-.036.005-.069.009-.104.021s-.064.027-.094.045c-.02.011-.043.015-.061.029l-1.774 1.324-.901-.897 2.399-2.386 4.36 4.289-.928.919zm6.819-7.017c-.016-.002-.03.004-.046.003l-.027-.001a.562.562 0 0 0-.092.008h.003a.484.484 0 0 0-.187.07l.002-.001a.492.492 0 0 0-.083.061c-.013.011-.028.016-.04.029l-4.698 5.146-4.328-4.256 2.833-2.818a.535.535 0 0 0-.378-.911h-.002l-2.219.013.028-1.607 3.104.027a6.928 6.928 0 0 0 4.978 2.101h.003c.438 0 .864-.046 1.28-.122.04.032.08.064.129.085l2.41.96.152.758.178.886-3.003-.427zm4.041.178-.313-1.558 1.446-1.08.946 1.257-2.08 1.381zm3.753-2.831-.837.785-.931-1.236.831-.637a.735.735 0 0 1 .543-.143.718.718 0 0 1 .621.71.71.71 0 0 1-.226.521z"/><path fill="#212121" style="fill:var(--color1, #212121)" d="m13.602 18.544-2.143-2.134a.53.53 0 0 0-.752 0l-2.143 2.133a.535.535 0 0 0 0 .756l2.142 2.134a.53.53 0 0 0 .752 0l2.143-2.134a.532.532 0 0 0 0-.756zm-2.519 1.759-1.387-1.381 1.386-1.381 1.387 1.381-1.387 1.381zm6.081-15.232-.258 1.036c.071.018 1.738.452 1.738 2.149h1.067c0-2.017-1.666-2.965-2.547-3.184zm2.547 4.251h-1.067v1.066h1.067V9.322z"/></symbol><symbol id="clock" viewBox="0 0 32 32"><path fill="#212121" style="fill:var(--color1, #212121)" d="M31.296 15.301C31.295 6.849 24.441-.002 15.988 0S.685 6.855.687 15.308c.002 6.788 4.422 12.543 10.541 14.545l.108.031a.667.667 0 0 0 .529-.065.636.636 0 0 0 .283-.357l3.865-12.25a1.913 1.913 0 1 0-.852-3.63l.011-.005-5.106-5.107a.638.638 0 0 0-.902.902l5.103 5.109a1.847 1.847 0 0 0-.191.826c0 .602.283 1.137.723 1.48l.004.003-3.682 11.673C3.843 25.782.117 17.709 2.797 10.431S13.551-.573 20.829 2.108c7.278 2.681 11.004 10.754 8.323 18.032-1.345 3.581-4.003 6.406-7.374 7.938l-.088.036-.398-1.874a.639.639 0 0 0-1.05-.343l.001-.001-3.837 3.426a.637.637 0 0 0 .227 1.083l.005.001 4.899 1.563a.637.637 0 0 0 .818-.744l.001.004-.391-1.839c5.528-2.374 9.329-7.772 9.329-14.057v-.034.002zm-15.304-.637a.638.638 0 0 1 0 1.276.638.638 0 0 1 0-1.276zm2.1 14.864 2.184-1.948.603 2.84-2.787-.892z"/><path fill="#2196f3" style="fill:var(--color2, #2196f3)" d="M15.354 3.185V4.46a.638.638 0 0 0 1.276 0V3.185a.638.638 0 1 0-1.276 0zM3.876 14.664a.638.638 0 0 0 0 1.276h1.275a.638.638 0 0 0 0-1.276H3.876zm24.232 1.275a.638.638 0 0 0 0-1.276h-1.275a.638.638 0 0 0 0 1.276h1.275z"/></symbol><symbol id="company-1" viewBox="0 0 22 11"><path fill="#afb1b8" style="fill:var(--color3, #afb1b8)" d="m1.28 0 1.495 1.415L0 1.413V8.28h7.253V5.654l1.493 1.414V-.001H1.279zm5.908 5.489L2.949 1.476h4.239v4.013zM5.872 7.276H1.148V2.658h.334v4.305h4.39v.313zM2.263 9.195l-.175.359-.175-.359h-.146l.255.479v.279h.132v-.279l.254-.479h-.146zm.22.758.061-.177h.294l.062.177h.138l-.287-.758h-.118l-.286.758h.137zm.208-.597.11.314h-.22l.11-.315zm.695.296a.172.172 0 0 0-.029.095v.001c0 .064.022.116.067.156s.105.06.18.06.14-.02.194-.061l.043.051h.147l-.111-.132a.378.378 0 0 0 .066-.23h-.11a.303.303 0 0 1-.032.139l-.147-.173.052-.038a.29.29 0 0 0 .078-.078l.001-.001a.166.166 0 0 0 .024-.086v-.004a.156.156 0 0 0-.053-.117.189.189 0 0 0-.128-.049H3.62c-.061 0-.11.018-.146.052s-.054.081-.054.141c0 .024.006.049.017.076s.033.058.062.095a.436.436 0 0 0-.113.105zm.342.168a.197.197 0 0 1-.12.043h-.006a.129.129 0 0 1-.085-.033.113.113 0 0 1-.034-.081v-.004c0-.041.021-.077.063-.108l.016-.012.166.195zm-.136-.336c-.036-.044-.054-.081-.054-.11 0-.025.007-.046.022-.063a.077.077 0 0 1 .056-.025h.006a.08.08 0 0 1 .054.021.067.067 0 0 1 .022.051v.003a.095.095 0 0 1-.032.071l-.016.013-.058.04zm1.234.412a.276.276 0 0 0 .09-.189h-.131c-.007.054-.023.093-.05.116s-.065.035-.117.035c-.057 0-.1-.022-.129-.065s-.044-.106-.044-.188v-.067c.001-.081.016-.142.047-.184s.075-.063.132-.063c.049 0 .087.012.112.036s.042.063.048.118h.131c-.009-.083-.038-.147-.089-.193s-.118-.068-.202-.068a.307.307 0 0 0-.164.044.282.282 0 0 0-.108.124l-.001.002a.44.44 0 0 0-.038.18V9.614c.001.07.014.131.039.184s.061.093.106.122c.046.029.1.043.16.043a.303.303 0 0 0 .208-.068zm.775-.107a.463.463 0 0 0 .039-.196v-.05a.463.463 0 0 0-.041-.19l.001.003a.284.284 0 0 0-.11-.127l-.001-.001c-.048-.03-.102-.045-.164-.045s-.116.015-.164.045a.297.297 0 0 0-.111.13.452.452 0 0 0-.039.186v.01-.001.043c0 .073.013.137.039.192s.064.099.112.129.103.045.164.045.117-.015.165-.045a.285.285 0 0 0 .11-.129zm-.141-.428a.33.33 0 0 1 .048.194v.039c0 .085-.016.15-.047.195s-.076.067-.134.067h-.005a.155.155 0 0 1-.129-.068v-.001a.332.332 0 0 1-.048-.193V9.55a.325.325 0 0 1 .049-.189.155.155 0 0 1 .128-.067h.006c.058 0 .103.022.135.067z"/></symbol><symbol id="company-2" viewBox="0 0 64 32"><path fill="#afb1b8" style="fill:var(--color3, #afb1b8)" d="M3.651.626h-.029c-.045-.003-.09-.004-.134-.005h-.097c-.085 0-.171.002-.257.006h-.02a6.02 6.02 0 0 0-2.28.588l.036-.016-.092.044v4.724l.216-.073c.189-.065.391-.124.6-.178a7.126 7.126 0 0 1 1.722-.229h.005v.621c-.077 0-.152.003-.227.006h-.018c-.485.027-.939.1-1.377.215l.048-.011a6.72 6.72 0 0 0-1.618.635l.035-.018V.877A6.205 6.205 0 0 1 1.781.211l.044-.01a6.197 6.197 0 0 1 1.563-.202h.092c.109.003.215.008.315.015.288.021.554.065.811.131L4.575.138v.611a4.606 4.606 0 0 0-.74-.113L3.819.635 3.804.634C3.751.63 3.699.625 3.65.625zm1.075.624c.135.01.276.015.418.015a6.685 6.685 0 0 0 1.692-.222l-.047.01A6.753 6.753 0 0 0 8.406.418l-.035.018v5.95a6.205 6.205 0 0 1-1.617.666l-.044.01a6.2 6.2 0 0 1-1.564.201h-.039c-.408 0-.804-.051-1.182-.147l.033.007V1.134a4.847 4.847 0 0 0 .768.115zm3.028.047-.216.073a9.168 9.168 0 0 1-.6.18 7.112 7.112 0 0 1-1.792.23h-.001c-.141 0-.27-.004-.396-.012l-.172-.011v4.859l.148.013c.137.012.278.018.421.018a5.734 5.734 0 0 0 1.452-.192l-.04.009a5.91 5.91 0 0 0 1.139-.412l-.035.015.092-.044V1.298zM.584 9.005a.317.317 0 0 0-.229-.097H.343h.001-.005a.362.362 0 0 0-.136.027l.002-.001a.313.313 0 0 0-.177.178l-.001.002a.362.362 0 0 0-.025.134v.809a.378.378 0 0 0 .032.166.288.288 0 0 0 .192.167c.039.011.08.017.121.017a.343.343 0 0 0 .336-.341v-.09H.471v.077a.201.201 0 0 1-.013.069v-.001a.133.133 0 0 1-.031.046.149.149 0 0 1-.088.031l-.012.001a.107.107 0 0 1-.087-.044.188.188 0 0 1-.028-.1v-.763a.267.267 0 0 1 .026-.121.11.11 0 0 1 .104-.049H.341h.004c.037 0 .07.018.09.045a.171.171 0 0 1 .035.104V9.346h.209V9.259a.369.369 0 0 0-.027-.141l.001.003a.35.35 0 0 0-.071-.114zm1.257-.009a.36.36 0 0 0-.366-.066.337.337 0 0 0-.193.177l-.001.002a.383.383 0 0 0-.031.157v.776a.376.376 0 0 0 .031.159.314.314 0 0 0 .082.109.369.369 0 0 0 .238.091.367.367 0 0 0 .241-.091.321.321 0 0 0 .08-.109.376.376 0 0 0 .031-.159v-.783a.366.366 0 0 0-.032-.152l.001.002a.356.356 0 0 0-.08-.113zm-.099 1.046.001.012a.139.139 0 0 1-.042.1c-.027.023-.062.036-.1.036s-.073-.014-.1-.036a.14.14 0 0 1-.043-.1l.001-.013v.001-.788c0-.039.016-.075.042-.1.027-.023.062-.036.1-.036s.073.014.1.036a.14.14 0 0 1 .043.1l-.001.013v-.001.777zm1.75.347v-1.47h-.203l-.267.778h-.004l-.269-.778h-.201v1.469h.21v-.894h.004l.205.632h.105l.207-.632h.004v.894h.21zm1.192-1.366a.285.285 0 0 0-.119-.08.444.444 0 0 0-.144-.023h-.319v1.47h.21v-.574h.108a.386.386 0 0 0 .189-.04.304.304 0 0 0 .114-.111l.001-.001c.024-.039.041-.083.048-.128s.011-.1.011-.154v-.014.001a.875.875 0 0 0-.02-.21.323.323 0 0 0-.077-.135zm-.108.448a.188.188 0 0 1-.02.078v-.001a.119.119 0 0 1-.053.051h-.001a.21.21 0 0 1-.088.019h-.011.001-.096v-.5h.118c.031 0 .06.007.086.019l-.001-.001a.12.12 0 0 1 .049.053v.001a.196.196 0 0 1 .018.082v.098c0 .034.002.07 0 .101h-.002zm1.1-.552h-.172l-.324 1.47h.21l.061-.316h.285l.062.316h.21l-.332-1.47zm-.193.954.103-.533h.004l.102.533h-.209zm1.546-.068h-.004l-.316-.885h-.201v1.47h.21v-.884h.004l.32.884h.197V8.921H7.03v.885zm1.28-.886-.169.585h-.004l-.169-.585h-.221l.288.849v.621h.21v-.621l.288-.848H8.31zM0 10.804h.101v.283h.068v-.283h.1v-.058h-.27v.058zm.848-.058-.132.341h.073l.028-.078h.136l.029.078h.075l-.136-.341H.848zm-.01.206.046-.127.046.127H.837zm.849.009h.079v.044a.127.127 0 0 1-.081.029H1.68a.084.084 0 0 1-.067-.033.141.141 0 0 1-.025-.081v-.008c0-.076.033-.114.098-.114h.007c.034 0 .062.023.07.054v.001l.067-.013c-.014-.067-.063-.1-.145-.1H1.68a.175.175 0 0 0-.115.044.164.164 0 0 0-.049.131v-.001.008c0 .046.017.088.044.12.03.031.072.05.119.05h.017a.202.202 0 0 0 .139-.055v-.134h-.148v.058zm.857-.215h-.069v.341h.239v-.058h-.17v-.283zm.724 0h-.069v.341h.069v-.341zm.708.228-.14-.228h-.067v.341h.064v-.223l.137.223h.069v-.341h-.063v.228zm.64-.037h.17v-.058h-.17v-.075h.183v-.058h-.252v.341h.259v-.058h-.19v-.092zm1.552-.056h-.134v-.134h-.068v.341h.068v-.149h.134v.149h.069v-.341h-.069v.135zm.644.056h.171v-.058h-.171v-.075h.183v-.058h-.252v.341h.259v-.058h-.19v-.092zm.873 0c.059-.009.09-.041.09-.095l.001-.01a.08.08 0 0 0-.034-.066.19.19 0 0 0-.087-.021l-.014.001h.001-.145v.341h.069v-.143h.018a.1.1 0 0 1 .038.008h-.001c.01.006.018.015.024.025l.074.108h.082l-.042-.067a.234.234 0 0 0-.075-.081l-.001-.001zm-.069-.047h-.051v-.086h.054l.014-.001c.02 0 .039.003.056.009h-.001a.045.045 0 0 1-.003.069.206.206 0 0 1-.057.009h-.013.001zm.727.047h.17v-.058h-.17v-.075h.183v-.058h-.253v.341h.259v-.058h-.19v-.092z"/></symbol><symbol id="company-3" viewBox="0 0 64 32"><path fill="#afb1b8" style="fill:var(--color3, #afb1b8)" d="m1.58 8.768.01.002a.022.022 0 0 1 .008.005l.046.044a.373.373 0 0 1-.131.084.508.508 0 0 1-.174.03h-.013.001a.508.508 0 0 1-.174-.028.399.399 0 0 1-.132-.08.351.351 0 0 1-.084-.121l-.001-.002a.397.397 0 0 1-.03-.153V8.536c0-.109.047-.206.122-.274a.413.413 0 0 1 .14-.08.543.543 0 0 1 .18-.028h.011c.056 0 .109.009.159.027l-.003-.001a.478.478 0 0 1 .125.071l-.039.047-.01.008a.033.033 0 0 1-.014.004h-.002a.034.034 0 0 1-.017-.005l-.021-.013-.029-.016a.316.316 0 0 0-.09-.028h-.002a.426.426 0 0 0-.064-.005H1.343a.376.376 0 0 0-.127.022l.003-.001a.306.306 0 0 0-.102.06c-.029.027-.051.06-.066.095s-.024.077-.024.121v.01c0 .044.009.086.024.124l-.001-.002a.273.273 0 0 0 .162.154c.038.014.079.02.12.02a.553.553 0 0 0 .071-.004.28.28 0 0 0 .154-.066.035.035 0 0 1 .022-.008zm1.344-.223v.005a.398.398 0 0 1-.032.155l.001-.002a.348.348 0 0 1-.087.122.397.397 0 0 1-.135.079l-.003.001a.557.557 0 0 1-.358-.002l.004.001a.377.377 0 0 1-.225-.202L2.088 8.7a.427.427 0 0 1 .001-.317l-.001.003a.37.37 0 0 1 .089-.124.392.392 0 0 1 .137-.077.556.556 0 0 1 .358.001l-.004-.001c.052.018.098.045.137.08a.359.359 0 0 1 .119.28zm-.123 0v-.007a.33.33 0 0 0-.023-.122l.001.002a.256.256 0 0 0-.159-.153l-.002-.001a.406.406 0 0 0-.26.001l.003-.001a.278.278 0 0 0-.098.06.245.245 0 0 0-.062.093l-.001.002a.366.366 0 0 0 .001.255L2.2 8.671a.259.259 0 0 0 .159.153l.002.001a.418.418 0 0 0 .257 0 .27.27 0 0 0 .098-.059.265.265 0 0 0 .062-.095.322.322 0 0 0 .022-.126zm1.039.132.012.028.013-.028a.199.199 0 0 1 .016-.029l-.001.001.297-.47c.006-.008.011-.013.017-.015s.013-.003.02-.003h.092v.764h-.104v-.612.001l-.299.476a.046.046 0 0 1-.017.017.051.051 0 0 1-.025.006H3.842a.043.043 0 0 1-.025-.007.046.046 0 0 1-.017-.017l-.308-.479v.613h-.1v-.762h.092l.021.003h-.001a.03.03 0 0 1 .016.015l.304.47a.135.135 0 0 1 .015.026v.001zm1.119-.038v.286h-.116v-.762h.259a.543.543 0 0 1 .145.017.274.274 0 0 1 .102.048c.025.02.045.045.058.073v.001c.014.031.02.064.02.098v.005c0 .069-.033.13-.084.169h-.001a.29.29 0 0 1-.103.05.488.488 0 0 1-.131.018h-.01l-.14-.002zm0-.082H5.1c.03 0 .061-.004.09-.012a.204.204 0 0 0 .066-.033.145.145 0 0 0 .053-.113v-.01a.126.126 0 0 0-.012-.055v.001a.148.148 0 0 0-.04-.052.25.25 0 0 0-.138-.042l-.019.001h.001-.141v.314zm1.563.369h-.094a.048.048 0 0 1-.024-.007.06.06 0 0 1-.015-.017l-.079-.184h-.397l-.082.184a.043.043 0 0 1-.039.025h-.093l.349-.764h.121l.354.764zm-.576-.283h.328l-.138-.311a.44.44 0 0 1-.026-.072l-.013.04-.013.032-.137.31zm1.079-.477a.045.045 0 0 1 .017.013l.509.576v-.593h.104v.764H7.596a.06.06 0 0 1-.023-.005.085.085 0 0 1-.019-.014l-.508-.575v.027-.001.567h-.104v-.764h.062c.007 0 .014.001.021.004zm1.488.457v.303h-.116v-.303l-.322-.46h.107c.008 0 .016.002.023.007a.085.085 0 0 1 .016.017l.201.297.021.035a.3.3 0 0 1 .015.032l.015-.033a.312.312 0 0 1 .02-.035l.198-.299a.075.075 0 0 1 .015-.016.036.036 0 0 1 .023-.008h.107l-.322.462zm-4.73-1.742c.051.006.102.01.154.014.785-.305 1.449-.804 1.909-1.435s.696-1.366.678-2.113l-.865-.751c.176.795.094 1.617-.237 2.374s-.898 1.419-1.638 1.911z"/><path fill="#afb1b8" style="fill:var(--color3, #afb1b8)" d="m3.474 6.846.023.004c.79-.491 1.392-1.177 1.729-1.969s.393-1.653.16-2.473l-1.232-1.07c.498.88.699 1.865.578 2.839s-.557 1.9-1.259 2.668zM7.652 4.23c-.209.821-.718 1.561-1.45 2.111a4.49 4.49 0 0 1-.663.417l-.026.012c.596-.152 1.144-.421 1.601-.786s.812-.817 1.037-1.32l-.5-.434z"/><path fill="#afb1b8" style="fill:var(--color3, #afb1b8)" d="m7.456 4.109-.711-.618c-.014.705-.244 1.393-.668 1.994S5.052 6.578 4.336 6.909h.003c.16 0 .319-.009.477-.025.669-.237 1.261-.615 1.721-1.099s.776-1.06.918-1.676zM3.577.887 2.728.149C1.969.404 1.317.852.856 1.434S.147 2.706.145 3.412c.003.781.305 1.539.86 2.153s1.328 1.051 2.2 1.24c.778-.824 1.234-1.842 1.301-2.906S4.247 1.78 3.577.887zm5.84 3.108c-.003-.926-.428-1.814-1.182-2.469S6.459.502 5.393.499h-.008c-.513 0-1.005.085-1.465.243l.032-.009 5.196 4.514c.169-.368.268-.798.269-1.251z"/></symbol><symbol id="company-4" viewBox="0 0 64 32"><path fill="#afb1b8" style="fill:var(--color3, #afb1b8)" d="M2.804 2.795h-.001c-.512 0-.926.368-.926.823 0 .455.415.823.926.823h.001c.512 0 .926-.369.926-.823 0-.455-.415-.823-.926-.823zm6.838-.263c-.002-.631-.284-1.237-.787-1.683S7.672.151 6.961.149C6.25.15 5.569.402 5.066.848S4.28 1.9 4.279 2.532v3.482s5.362-.531 5.363-3.482v-.001zM0 7.157c.001.439.198.86.548 1.171s.823.486 1.318.487c.494-.001.968-.176 1.318-.487s.547-.732.548-1.171V4.734S.001 5.104.001 7.157zm1.865.434a.527.527 0 0 1-.271-.073.454.454 0 0 1-.179-.192l-.001-.003a.393.393 0 0 1-.027-.253v.003c.019-.084.065-.162.134-.222s.153-.102.247-.118h.003a.57.57 0 0 1 .286.026l-.004-.001c.089.033.166.089.219.16a.403.403 0 0 1 .045.408.449.449 0 0 1-.105.141.536.536 0 0 1-.346.128v-.002zm3.771-.239h-.36v.372h-.188v-.91h.593v.152h-.405v.235h.36v.151zm.901-.062c0 .09-.016.168-.047.236s-.077.119-.137.156a.368.368 0 0 1-.196.055H6.15a.38.38 0 0 1-.202-.054.353.353 0 0 1-.136-.153l-.001-.002a.53.53 0 0 1-.05-.225V7.25c0-.09.016-.169.048-.236a.363.363 0 0 1 .339-.212.357.357 0 0 1 .339.212.546.546 0 0 1 .049.236v.041zm-.19-.042a.388.388 0 0 0-.051-.218.166.166 0 0 0-.139-.074h-.015a.166.166 0 0 0-.138.073v.001a.383.383 0 0 0-.052.215v.044c0 .093.017.165.051.216s.083.077.148.077h.007a.164.164 0 0 0 .137-.073v-.001a.383.383 0 0 0 .051-.216v-.044zm.798.237V7.48a.098.098 0 0 0-.037-.076.49.49 0 0 0-.135-.06 1.026 1.026 0 0 1-.16-.065l.005.003c-.103-.056-.155-.131-.155-.226 0-.049.014-.093.041-.131s.068-.069.119-.091c.052-.022.111-.032.175-.032s.123.012.174.036a.268.268 0 0 1 .161.245h-.188c0-.042-.013-.074-.039-.097s-.063-.035-.111-.035a.175.175 0 0 0-.107.029.092.092 0 0 0-.038.074v.002c0 .03.015.054.044.074s.074.039.132.056c.107.032.184.072.233.119s.073.107.073.178c0 .079-.03.141-.09.186s-.14.067-.24.067a.472.472 0 0 1-.191-.038.307.307 0 0 1-.131-.104l-.001-.001a.27.27 0 0 1-.045-.149v-.006h.188c0 .1.06.151.18.151a.18.18 0 0 0 .105-.027.088.088 0 0 0 .037-.073v-.004zm1.001-.519h-.279v.758h-.188v-.758h-.275v-.152h.741v.152zm.655.364h-.36v.244h.422v.151h-.61v-.91h.609v.152h-.421v.217h.36v.147zm.509.061h-.149v.333h-.188v-.91h.338c.108 0 .191.024.249.072s.087.116.087.203a.275.275 0 0 1-.041.156.273.273 0 0 1-.12.098l-.002.001.197.372v.009H9.48l-.171-.333zm-.149-.152h.151a.159.159 0 0 0 .109-.035.13.13 0 0 0 .039-.092v-.007c0-.043-.012-.077-.037-.101s-.061-.037-.112-.037H9.16v.273zm1.136.165v.321h-.188v-.91h.355c.068 0 .128.013.18.038a.278.278 0 0 1 .162.264c0 .089-.031.16-.092.211s-.145.077-.253.077h-.164zm0-.152h.167c.05 0 .087-.012.113-.035s.039-.057.039-.1V7.11a.15.15 0 0 0-.04-.102.146.146 0 0 0-.109-.042h-.172v.286zm1.186.078h-.36v.244h.422v.151h-.61v-.91h.609v.152h-.421v.217h.36v.147zm.87-.364h-.279v.758h-.188v-.758h-.275v-.152h.741v.152zm.655.364h-.36v.244h.422v.151h-.61v-.91h.609v.152h-.421v.217h.36v.147zm.51.061h-.149v.333h-.188v-.91h.338c.108 0 .19.024.249.072s.087.116.087.203a.283.283 0 0 1-.041.156.273.273 0 0 1-.12.098l-.002.001.197.372v.009h-.201l-.171-.333zm-.15-.152h.151a.159.159 0 0 0 .109-.035.13.13 0 0 0 .039-.093v-.007c0-.043-.012-.077-.037-.101s-.061-.037-.112-.037h-.151v.273zm1.102.246V7.48a.098.098 0 0 0-.037-.076.49.49 0 0 0-.135-.06 1.026 1.026 0 0 1-.16-.065l.005.003c-.103-.056-.155-.131-.155-.226 0-.049.014-.093.041-.131s.068-.069.119-.091c.052-.022.111-.032.175-.032s.123.012.174.036a.268.268 0 0 1 .161.245h-.188c0-.042-.013-.074-.039-.097s-.063-.035-.111-.035a.175.175 0 0 0-.107.029.092.092 0 0 0-.038.074v.002c0 .03.015.054.045.074s.074.039.132.056c.107.032.184.072.233.119s.073.107.073.178c0 .079-.03.141-.09.186s-.14.067-.24.067a.472.472 0 0 1-.191-.038.307.307 0 0 1-.131-.104l-.001-.001a.27.27 0 0 1-.045-.149v-.006h.188c0 .1.06.151.18.151a.174.174 0 0 0 .104-.027.09.09 0 0 0 .038-.073v-.004z"/></symbol><symbol id="company-5" viewBox="0 0 64 32"><path fill="#afb1b8" style="fill:var(--color3, #afb1b8)" d="M1.015 8.263c.052.059.08.133.078.208v.016c0 .047-.01.091-.029.13l.001-.002a.34.34 0 0 1-.093.119l-.001.001a.554.554 0 0 1-.315.097l-.038-.001H.62 0V7.51h.607l.036-.001c.112 0 .216.033.302.09l-.002-.001c.039.03.07.068.091.111s.03.09.027.137a.292.292 0 0 1-.07.202.334.334 0 0 1-.185.103.362.362 0 0 1 .209.113zm-.727-.199h.259a.265.265 0 0 0 .165-.044.157.157 0 0 0 .044-.058v-.001a.137.137 0 0 0 .012-.058L.767 7.89v.001-.011a.135.135 0 0 0-.013-.06v.001a.17.17 0 0 0-.043-.059.27.27 0 0 0-.149-.045l-.022.001h.001-.255v.347zm.45.507a.163.163 0 0 0 .047-.06V8.51a.146.146 0 0 0 .014-.063v-.011.001-.01a.145.145 0 0 0-.015-.066v.001a.18.18 0 0 0-.048-.061.287.287 0 0 0-.177-.047H.56.288v.363h.276a.294.294 0 0 0 .174-.046zm1.517.26-.337-.516h-.127v.516h-.29V7.51h.55l.039-.001c.129 0 .249.043.345.115l-.002-.001a.408.408 0 0 1 .131.266l.001.028a.393.393 0 0 1-.091.253l.001-.001a.458.458 0 0 1-.26.134h-.003l.359.528h-.316zm-.464-.696h.237c.165 0 .247-.067.247-.2v-.011a.187.187 0 0 0-.014-.071v.001a.184.184 0 0 0-.047-.068.272.272 0 0 0-.164-.055l-.024.001h.001-.24l.003.402zm2.051.43h-.579l-.102.266h-.304l.531-1.306h.329l.529 1.306h-.304l-.1-.266zm-.077-.2-.211-.557-.211.557h.423zm2.064.466h-.288l-.646-.898v.898h-.288V7.51h.288l.646.903V7.51h.288v1.321zm1.645-.316c-.06.1-.15.181-.261.233a.896.896 0 0 1-.382.084h-.025.001-.513V7.511h.537c.138 0 .269.03.387.084l-.006-.002c.11.051.201.131.261.23a.72.72 0 0 1 0 .693zm-.33-.031a.457.457 0 0 0 .127-.315.46.46 0 0 0-.127-.315.525.525 0 0 0-.328-.113l-.035.001h.002-.2v.855h.2l.033.001a.531.531 0 0 0 .329-.114l-.001.001zM4.023.164s3.72 1.286 3.641 3.147v3.148s-3.718-1.286-3.64-3.148L4.023.164zm6.955 5.557a5.384 5.384 0 0 1 2.364-.797v-.986a4.783 4.783 0 0 0-2.364 1.783z"/><path fill="#afb1b8" style="fill:var(--color3, #afb1b8)" d="M10.556 6.018c.575-1.06 1.572-1.878 2.786-2.286V.893S8.044 2.725 8.156 5.375v4.481s.236-.082.608-.236c0-.143 0-.288.017-.433.109-1.23.748-2.37 1.776-3.17z"/><path fill="#afb1b8" style="fill:var(--color3, #afb1b8)" d="M10.052 7.683a4.32 4.32 0 0 1 .185-.918 4.148 4.148 0 0 0-1.122 2.707c.442-.193.777-.358 1.104-.534l-.085.042a4.227 4.227 0 0 1-.082-1.298zm.211.016a4.084 4.084 0 0 0 .07 1.202l-.005-.026c1.447-.793 3.074-2.019 3.011-3.499v-.129a4.951 4.951 0 0 0-2.754 1.178 3.983 3.983 0 0 0-.321 1.259l-.001.016z"/></symbol><symbol id="company-6" viewBox="0 0 64 32"><path fill="#afb1b8" style="fill:var(--color3, #afb1b8)" d="M10.117 4.567a.625.625 0 0 1-.13-.383l.001-.043v.002-.615c0-.188.043-.332.128-.43s.232-.147.441-.146c.196 0 .335.042.417.125.09.106.133.237.123.368v.145h-.35v-.147a.759.759 0 0 0-.01-.143.138.138 0 0 0-.05-.085.2.2 0 0 0-.112-.034l-.016.001h.001l-.015-.001a.211.211 0 0 0-.119.036l.001-.001a.163.163 0 0 0-.058.093v.001a.685.685 0 0 0-.014.14v.013-.001.746a.38.38 0 0 0 .045.21c.018.022.042.04.069.05h.001a.193.193 0 0 0 .069.013l.022-.001h-.001l.015.001a.19.19 0 0 0 .11-.035h-.001a.148.148 0 0 0 .052-.09v-.001c.008-.05.012-.1.011-.15v-.151h.35v.138a.559.559 0 0 1-.122.388l.001-.001c-.08.091-.218.137-.419.137s-.354-.049-.44-.15zm1.458.006c-.089-.096-.133-.235-.133-.42v-.647c0-.183.044-.321.133-.415s.236-.141.444-.14c.206 0 .353.047.441.14s.133.232.133.415v.647c0 .183-.045.323-.135.419s-.236.144-.44.144-.354-.049-.444-.144zm.606-.155a.359.359 0 0 0 .042-.191v-.792l.001-.021a.341.341 0 0 0-.043-.168l.001.002a.167.167 0 0 0-.07-.051h-.001a.188.188 0 0 0-.094-.011h.001l-.024-.001a.202.202 0 0 0-.07.013h.001a.179.179 0 0 0-.072.051.344.344 0 0 0-.042.188v.796a.36.36 0 0 0 .042.192.24.24 0 0 0 .256.046l-.002.001a.228.228 0 0 0 .074-.047v-.004zm.833-1.448h.377l.283 1.194.29-1.194h.367l.037 1.723h-.271l-.029-1.197-.28 1.197h-.218l-.29-1.202-.027 1.202h-.274l.034-1.723zm1.776 0h.587c.338 0 .507.163.507.489 0 .312-.178.468-.534.468h-.2v.766h-.362l.002-1.723zm.502.737c.036.004.072.001.107-.008s.066-.025.093-.046a.276.276 0 0 0 .052-.195v-.019a.545.545 0 0 0-.019-.141l.001.004a.129.129 0 0 0-.027-.047.149.149 0 0 0-.045-.034h-.001a.365.365 0 0 0-.143-.028l-.02.001h.001-.141v.515h.141zm1.115-.737h.389l.399 1.723h-.338l-.079-.397h-.347l-.081.397h-.343l.399-1.723zm.333 1.127-.136-.723-.135.723h.271zm.778-1.127h.254l.485.983V2.97h.301v1.723h-.241l-.489-1.026v1.026h-.311l.001-1.723zm1.745 1.066-.404-1.063h.34l.246.683.231-.683h.333l-.399 1.064v.657h-.348v-.657zm-8.586 1.411v.09h-.296v.7h-.124v-.7H9.96v-.09h.717zm.927.79h-.099a.04.04 0 0 1-.024-.008.046.046 0 0 1-.016-.018l-.086-.188h-.41l-.085.188a.05.05 0 0 1-.013.021.041.041 0 0 1-.025.008h-.097l.362-.79h.126l.367.787zm-.6-.293h.342l-.145-.322a.693.693 0 0 1-.026-.07l-.001-.004-.014.042-.013.033-.143.321zm1.224.215a.771.771 0 0 0 .068 0 .581.581 0 0 0 .11-.023l.048-.019v-.178h-.146a.028.028 0 0 1-.018-.006l-.005-.006a.019.019 0 0 1-.002-.007v-.062h.281v.303a.553.553 0 0 1-.149.063l-.004.001a.56.56 0 0 1-.091.016c-.035.003-.07.005-.106.005h-.005a.548.548 0 0 1-.182-.031l.004.001a.437.437 0 0 1-.146-.083h.001a.372.372 0 0 1-.092-.123l-.001-.002a.39.39 0 0 1-.033-.159v-.011c0-.058.012-.113.034-.163l-.001.003c.021-.047.053-.09.093-.125s.091-.063.145-.082a.686.686 0 0 1 .381-.002.433.433 0 0 1 .136.072l-.035.049a.032.032 0 0 1-.012.011.033.033 0 0 1-.017.004.046.046 0 0 1-.023-.006.44.44 0 0 1-.038-.02l.002.001a.322.322 0 0 0-.046-.021l-.002-.001a.35.35 0 0 0-.064-.017h-.003a.579.579 0 0 0-.087-.007H12.214a.427.427 0 0 0-.139.023l.003-.001a.303.303 0 0 0-.107.063.292.292 0 0 0-.067.096l-.001.002a.37.37 0 0 0 .001.266l-.001-.003a.293.293 0 0 0 .073.1c.03.027.066.048.106.063a.41.41 0 0 0 .144.016zm1.156-.012h.396v.09h-.516v-.79h.124l-.003.7zm.807.09h-.124v-.79h.124v.79zm.461-.786a.067.067 0 0 1 .019.014l.53.596-.001-.014.001-.015v.001-.589h.108v.794h-.066a.06.06 0 0 1-.023-.005.058.058 0 0 1-.019-.015l-.529-.595v.614h-.104v-.79h.064c.007 0 .014.001.02.004zm1.569-.004v.087h-.439v.261h.356v.084h-.356v.27h.439v.087h-.567v-.788h.567zM3.235.567l5.503 1.349v4.727L3.235 5.295V.567zM2.881.163v5.36l6.208 1.522v-5.36L2.881.162z"/><path fill="#afb1b8" style="fill:var(--color3, #afb1b8)" d="M6.209 9.534 0 8.01V2.65l6.209 1.523v5.36z"/><path fill="#afb1b8" style="fill:var(--color3, #afb1b8)" d="m2.985.506 5.431 1.332-2.31 1.995L.674 2.5 2.985.506zM2.881.164 0 2.651l6.209 1.523L9.09 1.686 2.882.163zm3.677 9.069L9.09 7.047l-2.532-.621v2.807z"/></symbol><symbol id="diagram" viewBox="0 0 32 32"><path fill="#2196f3" style="fill:var(--color2, #2196f3)" d="M14.926 14.965h1.066v4.798h-1.066v-4.798zm4.264 2.132h1.066v2.665H19.19v-2.665zm-8.529 1.599h1.066v1.066h-1.066v-1.066zm-3.198-.533h1.066v1.599H7.463v-1.599z"/><path fill="#212121" style="fill:var(--color1, #212121)" d="M1.599 28.291h25.586a1.6 1.6 0 0 0 1.599-1.599V24.56a1.6 1.6 0 0 0-1.599-1.599h-.533V9.667l3.028-2.868a1.608 1.608 0 1 0-.742-.752l-.004-.01-2.281 2.162v-1.23a1.6 1.6 0 0 0-1.599-1.599H3.731a1.6 1.6 0 0 0-1.599 1.599v15.992h-.533A1.6 1.6 0 0 0 0 24.56v2.132a1.6 1.6 0 0 0 1.599 1.599zM30.384 4.837a.533.533 0 0 1 0 1.066.533.533 0 0 1 0-1.066zM3.198 6.969c0-.294.239-.533.533-.533h21.323c.294 0 .533.239.533.533v2.239l-1.066 1.013V8.036a.534.534 0 0 0-.534-.534H4.798a.534.534 0 0 0-.534.533v13.327c0 .294.239.533.534.533h19.189a.534.534 0 0 0 .534-.533v-9.675l1.066-1.01V22.96H3.198V6.969zm4.798 6.93h-.005a1.6 1.6 0 1 0 1.112 2.748l1.853.93a.535.535 0 0 0 .636-.122l3.939-4.432 3.872 2.902a.534.534 0 0 0 .686-.039l3.365-3.188v8.131H5.331V8.568h18.123v2.661l-3.771 3.572-3.904-2.927a.534.534 0 0 0-.718.071v.001l-3.993 4.493-1.493-.746c.011-.064.017-.128.02-.193a1.6 1.6 0 0 0-1.599-1.599zm.533 1.599a.533.533 0 0 1-1.066 0 .533.533 0 0 1 1.066 0zm3.198 8.528h5.33v.533a.533.533 0 0 1-.533.533h-4.265a.533.533 0 0 1-.533-.533v-.533zm-10.66.534c0-.294.238-.533.533-.533h9.062v.533a1.6 1.6 0 0 0 1.599 1.599h4.265a1.6 1.6 0 0 0 1.599-1.599v-.533h9.062c.294 0 .533.239.533.533v2.132a.533.533 0 0 1-.533.533H1.601a.533.533 0 0 1-.533-.533V24.56z"/></symbol><symbol id="envelope" viewBox="0 0 64 32"><path fill="#757575" style="fill:var(--color4, #757575)" d="M3.093 0H.32A.32.32 0 0 0 0 .32v1.92c0 .176.144.32.32.32h2.773a.32.32 0 0 0 .32-.32V.32a.32.32 0 0 0-.32-.32zm0 .213c.014 0 .028.003.041.008L1.706 1.458.278.221A.107.107 0 0 1 .319.213h2.773zm0 2.134H.32a.107.107 0 0 1-.107-.107V.447l1.423 1.234a.108.108 0 0 0 .14 0L3.199.447V2.24a.107.107 0 0 1-.107.107z"/></symbol><symbol id="facebook" viewBox="0 0 64 32"><path fill="#afb1b8" style="fill:var(--color3, #afb1b8)" d="M2.844.708h.39V.03A4.88 4.88 0 0 0 2.686 0h-.021.001c-.562 0-.947.353-.947 1.003V1.6h-.62v.758h.62v1.908h.76V2.358h.595l.095-.758H2.48v-.523c0-.219.059-.369.365-.369z"/></symbol><symbol id="instagram" viewBox="0 0 64 32"><path fill="#afb1b8" style="fill:var(--color3, #afb1b8)" d="M4.262 1.254a1.548 1.548 0 0 0-.099-.518 1.056 1.056 0 0 0-.247-.378 1.061 1.061 0 0 0-.37-.244L3.539.112a1.58 1.58 0 0 0-.518-.099C2.793.002 2.72 0 2.141 0s-.652.003-.879.013C1.035.023.879.059.745.112a1.06 1.06 0 0 0-.379.247C.26.463.177.589.123.729L.121.736a1.553 1.553 0 0 0-.099.518c-.011.228-.013.301-.013.88s.003.652.013.879c.01.227.047.382.099.518.057.148.141.274.246.378.107.108.236.192.378.246.136.053.291.089.518.099.228.01.3.013.879.013s.652-.003.879-.013c.227-.01.382-.046.518-.099.288-.113.511-.337.622-.617l.003-.007a1.58 1.58 0 0 0 .099-.518c.01-.228.012-.3.012-.879s-.001-.652-.011-.879zm-.384 1.742a1.174 1.174 0 0 1-.073.396.71.71 0 0 1-.401.403l-.005.002a1.174 1.174 0 0 1-.396.073c-.225.01-.292.013-.862.013s-.638-.003-.862-.013a1.174 1.174 0 0 1-.396-.073.662.662 0 0 1-.245-.159.67.67 0 0 1-.158-.24l-.002-.005a1.174 1.174 0 0 1-.073-.396c-.01-.225-.013-.293-.013-.862s.003-.638.013-.862C.414 1.065.449.952.478.877a.652.652 0 0 1 .16-.245.665.665 0 0 1 .241-.158L.884.472c.075-.029.188-.064.396-.073.225-.01.293-.012.862-.012s.638.003.862.012c.208.009.321.044.396.073a.653.653 0 0 1 .245.159.661.661 0 0 1 .159.245c.029.075.064.188.073.396.01.225.013.292.013.862s-.003.636-.013.861z"/><path fill="#afb1b8" style="fill:var(--color3, #afb1b8)" d="M2.141 1.038a1.096 1.096 0 1 0 0 2.191 1.096 1.096 0 0 0 0-2.191zm0 1.807a.71.71 0 1 1 0-1.422.71.71 0 1 1 0 1.422zM3.537.994a.256.256 0 0 1-.512 0 .256.256 0 0 1 .512 0z"/></symbol><symbol id="linkedin" viewBox="0 0 64 32"><path fill="#afb1b8" style="fill:var(--color3, #afb1b8)" d="M4.266 4.267h.001V2.702c0-.765-.165-1.355-1.06-1.355-.43 0-.719.236-.837.46h-.012v-.388h-.849v2.848h.884v-1.41c0-.371.07-.731.53-.731.453 0 .46.424.46.754v1.387h.883zM.07 1.418h.885v2.849H.07V1.418zM.512 0A.512.512 0 0 0 0 .512c0 .283.23.517.512.517s.512-.234.512-.517A.512.512 0 0 0 .512 0z"/></symbol><symbol id="smartphone" viewBox="0 0 3 3"><path fill="#757575" style="fill:var(--color4, #757575)" d="M1.813 0H.32A.32.32 0 0 0 0 .32v2.773c0 .176.144.32.32.32h1.493a.32.32 0 0 0 .32-.32V.32a.32.32 0 0 0-.32-.32zM.32.213h1.493c.059 0 .107.048.107.107v2.24H.213V.32C.213.261.261.213.32.213zM1.813 3.2H.32a.107.107 0 0 1-.107-.107v-.32H1.92v.32a.107.107 0 0 1-.107.107z"/><path fill="#757575" style="fill:var(--color4, #757575)" d="M.502 2.931c.019.017.031.042.031.07s-.012.053-.031.07c-.02.018-.046.029-.076.029S.37 3.089.35 3.071c-.019-.017-.031-.042-.031-.07s.012-.053.031-.07c.02-.018.046-.029.076-.029s.056.011.076.029z"/></symbol><symbol id="twitter" viewBox="0 0 64 32"><path fill="#afb1b8" style="fill:var(--color3, #afb1b8)" d="M4.267.81a1.777 1.777 0 0 1-.495.137l-.009.001a.874.874 0 0 0 .383-.477l.002-.006c-.16.096-.345.17-.543.21l-.011.002a.874.874 0 0 0-1.512.597.92.92 0 0 0 .02.199A2.474 2.474 0 0 1 .299.558a.876.876 0 0 0 .268 1.169.853.853 0 0 1-.399-.11l.004.002v.01a.88.88 0 0 0 .695.859l.006.001a.864.864 0 0 1-.222.029H.643a.766.766 0 0 1-.166-.015.883.883 0 0 0 .817.609 1.744 1.744 0 0 1-1.083.373h-.01a1.79 1.79 0 0 1-.209-.013L0 3.473a2.44 2.44 0 0 0 1.334.393h.008c1.61 0 2.49-1.333 2.49-2.489 0-.038-.001-.076-.003-.113.173-.125.319-.275.434-.447l.004-.006z"/></symbol></defs></svg>